<svg width="179" height="171" viewBox="0 0 179 171" fill="none" xmlns="http://www.w3.org/2000/svg">
<rect width="179" height="171" fill="#E5E5E5"/>
<ellipse cx="89.5" cy="85.5" rx="89.5" ry="85.5" fill="#0D0D0D"/>
<path d="M136.628 70.1373C135.989 74.9398 134.504 79.1248 132.172 82.6924C129.845 86.2202 126.838 89.0922 123.15 91.3083C119.468 93.4847 115.21 94.9787 110.377 95.7903C105.548 96.5622 100.336 96.5762 94.7398 95.8323C94.065 95.7426 93.4934 95.4849 93.0249 95.0591C92.6014 94.5989 92.4398 93.9917 92.54 93.2376C92.6191 92.6423 92.906 92.1553 93.4006 91.7768C93.8953 91.3982 94.4601 91.2511 95.0951 91.3356C100.096 92.0003 104.737 92.0315 109.018 91.4291C113.298 90.8268 117.055 89.6095 120.288 87.7772C123.525 85.9053 126.174 83.4502 128.234 80.4119C130.294 77.3736 131.603 73.7509 132.163 69.5438C132.732 65.2573 132.286 61.3204 130.824 57.7332C129.402 54.1513 127.137 50.9825 124.03 48.2268C120.962 45.4763 117.146 43.1919 112.581 41.3734C108.056 39.5602 102.975 38.279 97.3395 37.5298C92.021 36.8229 86.8033 36.5737 81.6863 36.7821C76.609 36.9959 71.7819 37.6064 67.2049 38.6136C62.628 39.6209 58.3859 40.9958 54.4787 42.7384C50.6112 44.4862 47.2108 46.5183 44.2774 48.8346C41.3838 51.1562 39.0195 53.7501 37.1844 56.6163C35.3546 59.4428 34.2234 62.4834 33.7908 65.738C33.411 68.5956 33.5748 71.1621 34.2821 73.4372C34.9895 75.7124 36.0592 77.6923 37.4913 79.3772C38.9684 81.0276 40.731 82.3524 42.7793 83.3517C44.8276 84.351 47.0226 85.0063 49.3644 85.3176C52.1427 85.6869 54.643 85.7163 56.8654 85.4058C59.1275 85.1006 61.0403 84.6884 62.6037 84.1692C64.2069 83.6553 65.445 83.1534 66.3179 82.6635C67.1961 82.134 67.6802 81.8348 67.7701 81.766C68.2648 81.3874 68.8097 81.2377 69.4051 81.3169C70.0004 81.396 70.4848 81.7027 70.858 82.237C71.2763 82.7369 71.4458 83.2846 71.3667 83.8799C71.277 84.5546 70.9677 85.0588 70.4386 85.3924C70.3487 85.4612 69.7773 85.8094 68.7245 86.4369C67.7114 87.0696 66.2512 87.7238 64.3438 88.3992C62.4814 89.0403 60.2326 89.5492 57.5975 89.926C54.9624 90.3028 52.0175 90.2748 48.7629 89.8422C45.7862 89.4466 42.9945 88.5706 40.3877 87.2143C37.8207 85.8634 35.6292 84.118 33.8133 81.9782C32.0423 79.804 30.7184 77.3056 29.8415 74.4828C29.0095 71.6256 28.8178 68.5102 29.2662 65.1365C29.7568 61.4454 30.9831 57.9934 32.945 54.7805C34.9519 51.5332 37.5225 48.6032 40.6568 45.9905C43.836 43.3433 47.5141 41.0452 51.6911 39.0962C55.8734 37.1075 60.4224 35.5512 65.3379 34.4273C70.2587 33.2638 75.4615 32.5619 80.9463 32.3215C86.4363 32.0415 92.0589 32.2839 97.8139 33.0489C104.125 33.8877 109.824 35.3724 114.913 37.5029C120.002 39.6334 124.252 42.2987 127.664 45.4988C131.116 48.7041 133.635 52.3914 135.221 56.5607C136.813 60.6902 137.282 65.2157 136.628 70.1373ZM103.147 51.2674C103.743 51.3465 104.23 51.6334 104.608 52.128C105.032 52.5883 105.199 53.1557 105.109 53.8305C105.056 54.2274 104.89 54.5687 104.609 54.8546C104.369 55.1457 104.071 55.4091 103.717 55.6448C101.262 57.0957 99.2253 58.7435 97.6068 60.5884C96.028 62.4385 94.7257 64.4869 93.7 66.7336C92.7193 68.946 91.9358 71.3461 91.3495 73.934C90.8028 76.5271 90.3396 79.2525 89.9597 82.1102L88.9627 89.6116C88.3085 94.5332 87.2494 99.1586 85.7853 103.488C84.3265 107.777 82.3238 111.449 79.7771 114.504C77.2701 117.563 74.1409 119.833 70.3897 121.314C66.6332 122.834 62.1156 123.243 56.8368 122.542C54.4554 122.225 52.1533 121.616 49.9304 120.715C47.7419 119.859 45.7068 118.76 43.8251 117.419C41.9486 116.039 40.2625 114.442 38.7669 112.627C37.2712 110.813 36.0401 108.831 35.0735 106.683C35.0152 106.514 34.9596 106.325 34.9066 106.116C34.8588 105.867 34.8482 105.644 34.8746 105.445C34.9484 104.89 35.2128 104.42 35.6677 104.036C36.1676 103.618 36.7549 103.453 37.4297 103.543C37.8266 103.596 38.168 103.762 38.4538 104.043C38.7847 104.289 39.048 104.586 39.244 104.935C41.3146 108.805 43.8387 111.847 46.8162 114.061C49.7989 116.234 53.3343 117.593 57.4224 118.136C62.1058 118.759 66.0295 118.412 69.1934 117.096C72.4023 115.745 75.038 113.692 77.1007 110.937C79.2083 108.147 80.8262 104.788 81.9544 100.858C83.1223 96.9338 84.0069 92.7093 84.6083 88.1846L85.6133 80.6237C85.9668 77.9645 86.4499 75.2417 87.0626 72.4553C87.6806 69.6293 88.5857 66.9222 89.7779 64.3341C91.0151 61.7116 92.5884 59.2953 94.4978 57.0852C96.4522 54.8407 98.9227 52.9678 101.909 51.4664C102.079 51.4081 102.288 51.3551 102.536 51.3073C102.785 51.2596 102.989 51.2463 103.147 51.2674Z" fill="#FEFEFE"/>
<path d="M132.172 82.6924L133.007 83.243L133.009 83.2395L132.172 82.6924ZM123.15 91.3083L123.659 92.1692L123.666 92.1654L123.15 91.3083ZM110.377 95.7903L110.535 96.7778L110.542 96.7765L110.377 95.7903ZM93.0249 95.0591L92.2891 95.7363L92.3193 95.7691L92.3523 95.7991L93.0249 95.0591ZM93.4006 91.7768L92.7929 90.9827L93.4006 91.7768ZM120.288 87.7772L120.781 88.6472L120.788 88.643L120.288 87.7772ZM130.824 57.7332L129.895 58.1023L129.898 58.1106L130.824 57.7332ZM124.03 48.2268L123.362 48.9714L123.366 48.975L124.03 48.2268ZM112.581 41.3734L112.209 42.3016L112.211 42.3024L112.581 41.3734ZM81.6863 36.7821L81.6456 35.783L81.6442 35.783L81.6863 36.7821ZM54.4787 42.7384L54.0714 41.8251L54.0669 41.8271L54.4787 42.7384ZM44.2774 48.8346L43.6577 48.0498L43.6516 48.0546L44.2774 48.8346ZM37.1844 56.6163L38.0239 57.1598L38.0266 57.1555L37.1844 56.6163ZM37.4913 79.3772L36.7294 80.0248L36.7376 80.0345L36.7462 80.0441L37.4913 79.3772ZM56.8654 85.4058L56.7317 84.4148L56.727 84.4154L56.8654 85.4058ZM62.6037 84.1692L62.2985 83.2169L62.2886 83.2202L62.6037 84.1692ZM66.3179 82.6635L66.8073 83.5356L66.8209 83.528L66.8343 83.5199L66.3179 82.6635ZM70.858 82.237L70.0383 82.8097L70.0632 82.8454L70.0911 82.8787L70.858 82.237ZM70.4386 85.3924L69.9052 84.5465L69.8669 84.5707L69.8309 84.5983L70.4386 85.3924ZM68.7245 86.4369L68.2126 85.5779L68.2036 85.5832L68.1948 85.5887L68.7245 86.4369ZM64.3438 88.3992L64.6693 89.3448L64.6776 89.3419L64.3438 88.3992ZM40.3877 87.2143L39.922 88.0993L39.9262 88.1015L40.3877 87.2143ZM33.8133 81.9782L33.038 82.6098L33.0443 82.6176L33.0509 82.6253L33.8133 81.9782ZM29.8415 74.4828L28.8814 74.7624L28.8838 74.7709L28.8865 74.7795L29.8415 74.4828ZM32.945 54.7805L32.0943 54.2548L32.0915 54.2593L32.945 54.7805ZM40.6568 45.9905L40.0169 45.222L40.0165 45.2224L40.6568 45.9905ZM51.6911 39.0962L52.114 40.0024L52.1206 39.9993L51.6911 39.0962ZM65.3379 34.4273L65.5608 35.4022L65.568 35.4005L65.3379 34.4273ZM80.9463 32.3215L80.9901 33.3206L80.9972 33.3202L80.9463 32.3215ZM127.664 45.4988L126.98 46.2281L126.984 46.2315L127.664 45.4988ZM135.221 56.5607L134.287 56.9163L134.288 56.9203L135.221 56.5607ZM104.608 52.128L103.814 52.7358L103.842 52.7718L103.872 52.8052L104.608 52.128ZM104.609 54.8546L103.895 54.1544L103.866 54.1847L103.839 54.2175L104.609 54.8546ZM103.717 55.6448L104.226 56.5056L104.248 56.4922L104.27 56.4775L103.717 55.6448ZM97.6068 60.5884L96.855 59.9288L96.8461 59.9392L97.6068 60.5884ZM93.7 66.7336L92.7903 66.3183L92.7858 66.3284L93.7 66.7336ZM91.3495 73.934L90.3742 73.713L90.3725 73.7203L90.371 73.7277L91.3495 73.934ZM85.7853 103.488L86.7321 103.81L86.7326 103.808L85.7853 103.488ZM79.7771 114.504L79.009 113.863L79.0036 113.87L79.7771 114.504ZM70.3897 121.314L70.0226 120.384L70.0146 120.387L70.3897 121.314ZM49.9304 120.715L50.3062 119.788L50.2948 119.784L49.9304 120.715ZM43.8251 117.419L43.2325 118.225L43.2386 118.229L43.2448 118.234L43.8251 117.419ZM35.0735 106.683L34.1279 107.009L34.1428 107.052L34.1616 107.094L35.0735 106.683ZM34.9066 106.116L33.9245 106.304L33.93 106.333L33.9373 106.362L34.9066 106.116ZM35.6677 104.036L35.026 103.269L35.0229 103.272L35.6677 104.036ZM38.4538 104.043L37.7536 104.757L37.8024 104.805L37.8572 104.845L38.4538 104.043ZM39.244 104.935L40.1257 104.464L40.121 104.455L40.1161 104.446L39.244 104.935ZM46.8162 114.061L46.2195 114.863L46.2272 114.869L46.8162 114.061ZM69.1934 117.096L69.5775 118.019L69.5813 118.017L69.1934 117.096ZM77.1007 110.937L76.3028 110.334L76.3002 110.337L77.1007 110.937ZM81.9544 100.858L80.9959 100.573L80.9932 100.582L81.9544 100.858ZM87.0626 72.4553L88.0392 72.6701L88.0395 72.669L87.0626 72.4553ZM89.7779 64.3341L88.8735 63.9074L88.8696 63.9157L89.7779 64.3341ZM94.4978 57.0852L93.7436 56.4285L93.7411 56.4314L94.4978 57.0852ZM101.909 51.4664L101.584 50.5208L101.52 50.5427L101.46 50.5729L101.909 51.4664ZM135.637 70.0055C135.015 74.6801 133.575 78.7189 131.335 82.1452L133.009 83.2395C135.434 79.5307 136.964 75.1995 137.619 70.2691L135.637 70.0055ZM131.337 82.1418C129.094 85.5426 126.197 88.3107 122.635 90.4512L123.666 92.1654C127.479 89.8738 130.596 86.8979 133.007 83.243L131.337 82.1418ZM122.642 90.4474C119.079 92.5529 114.941 94.0099 110.211 94.8041L110.542 96.7765C115.48 95.9475 119.857 94.4165 123.659 92.1692L122.642 90.4474ZM110.219 94.8028C105.5 95.5572 100.386 95.5741 94.8715 94.841L94.608 96.8236C100.286 97.5783 105.597 97.5671 110.535 96.7777L110.219 94.8028ZM94.8715 94.841C94.3825 94.776 94.004 94.5976 93.6975 94.3191L92.3523 95.7991C92.9828 96.3722 93.7476 96.7092 94.608 96.8236L94.8715 94.841ZM93.7608 94.3819C93.5815 94.1872 93.4609 93.8992 93.5313 93.3694L91.5487 93.1059C91.4187 94.0843 91.6213 95.0106 92.2891 95.7363L93.7608 94.3819ZM93.5313 93.3694C93.574 93.0476 93.7157 92.7949 94.0084 92.5709L92.7929 90.9827C92.0963 91.5157 91.6642 92.2369 91.5487 93.1059L93.5313 93.3694ZM94.0084 92.5709C94.2858 92.3586 94.5828 92.2763 94.9634 92.3268L95.2269 90.3443C94.3373 90.226 93.5047 90.4378 92.7929 90.9827L94.0084 92.5709ZM94.9634 92.3268C100.04 93.0016 104.773 93.0363 109.157 92.4194L108.878 90.4389C104.701 91.0267 100.152 90.999 95.2269 90.3443L94.9634 92.3268ZM109.157 92.4194C113.542 91.8023 117.422 90.5507 120.781 88.6472L119.794 86.9073C116.688 88.6683 113.055 89.8512 108.878 90.4389L109.157 92.4194ZM120.788 88.643C124.154 86.697 126.915 84.1387 129.062 80.9731L127.406 79.8508C125.433 82.7617 122.897 85.1136 119.787 86.9115L120.788 88.643ZM129.062 80.9731C131.221 77.7876 132.577 74.0125 133.154 69.6756L131.171 69.412C130.629 73.4893 129.366 76.9597 127.406 79.8508L129.062 80.9731ZM133.154 69.6756C133.744 65.237 133.285 61.1223 131.75 57.3558L129.898 58.1106C131.287 61.5185 131.721 65.2775 131.171 69.412L133.154 69.6756ZM131.754 57.3642C130.269 53.6257 127.909 50.3299 124.693 47.4786L123.366 48.975C126.366 51.6351 128.535 54.6769 129.895 58.1023L131.754 57.3642ZM124.697 47.4822C121.527 44.6398 117.605 42.2982 112.951 40.4444L112.211 42.3024C116.687 44.0855 120.397 46.3129 123.362 48.9713L124.697 47.4822ZM112.953 40.4451C108.339 38.5964 103.176 37.2969 97.4712 36.5386L97.2077 38.5211C102.775 39.2611 107.773 40.5239 112.209 42.3016L112.953 40.4451ZM97.4712 36.5386C92.0983 35.8244 86.8228 35.572 81.6456 35.783L81.727 37.7813C86.7837 37.5753 91.9437 37.8214 97.2077 38.5211L97.4712 36.5386ZM81.6442 35.783C76.5136 35.999 71.6283 36.6162 66.99 37.637L67.4199 39.5903C71.9354 38.5965 76.7044 37.9927 81.7283 37.7812L81.6442 35.783ZM66.99 37.637C62.3532 38.6575 58.046 40.0525 54.0714 41.8251L54.886 43.6517C58.7259 41.9392 62.9028 40.5844 67.4199 39.5903L66.99 37.637ZM54.0669 41.8271C50.135 43.6041 46.6629 45.6768 43.6577 48.0498L44.8972 49.6194C47.7587 47.3599 51.0874 45.3684 54.8905 43.6497L54.0669 41.8271ZM43.6516 48.0546C40.6809 50.4381 38.2409 53.1116 36.3422 56.0771L38.0266 57.1555C39.798 54.3887 42.0867 51.8743 44.9032 49.6146L43.6516 48.0546ZM36.345 56.0729C34.4368 59.0204 33.2522 62.201 32.7996 65.6062L34.7821 65.8697C35.1947 62.7657 36.2724 59.8653 38.0239 57.1598L36.345 56.0729ZM32.7996 65.6062C32.4045 68.5781 32.5687 71.2944 33.3272 73.7341L35.237 73.1403C34.5808 71.0297 34.4175 68.6132 34.7821 65.8697L32.7996 65.6062ZM33.3272 73.7341C34.0715 76.1279 35.2034 78.2295 36.7294 80.0248L38.2533 78.7295C36.9151 77.1552 35.9075 75.2968 35.237 73.1403L33.3272 73.7341ZM36.7462 80.0441C38.312 81.7937 40.1798 83.1961 42.3409 84.2505L43.2178 82.453C41.2823 81.5087 39.6247 80.2615 38.2365 78.7103L36.7462 80.0441ZM42.3409 84.2505C44.4893 85.2986 46.7883 85.984 49.2326 86.3089L49.4961 84.3263C47.257 84.0287 45.166 83.4035 43.2178 82.453L42.3409 84.2505ZM49.2326 86.3089C52.0793 86.6873 54.6728 86.7218 57.0037 86.3962L56.727 84.4154C54.6132 84.7107 52.206 84.6865 49.4961 84.3263L49.2326 86.3089ZM56.9991 86.3969C59.3012 86.0863 61.2787 85.6629 62.9189 85.1182L62.2886 83.2202C60.8018 83.7139 58.9538 84.115 56.7317 84.4148L56.9991 86.3969ZM62.909 85.1215C64.5392 84.5989 65.8497 84.073 66.8073 83.5356L65.8286 81.7915C65.0403 82.2338 63.8746 82.7117 62.2985 83.2169L62.909 85.1215ZM66.8343 83.5199C67.2745 83.2545 67.6187 83.0451 67.8654 82.8926C68.0852 82.7568 68.283 82.6327 68.3779 82.5601L67.1624 80.9719C67.1673 80.9681 67.0781 81.0281 66.8139 81.1914C66.5765 81.3381 66.2396 81.5431 65.8016 81.8072L66.8343 83.5199ZM68.3779 82.5601C68.6706 82.3361 68.9516 82.2654 69.2733 82.3081L69.5368 80.3256C68.6679 80.2101 67.8589 80.4388 67.1624 80.9719L68.3779 82.5601ZM69.2733 82.3081C69.5654 82.347 69.8102 82.4833 70.0383 82.8097L71.6778 81.6643C71.1593 80.9221 70.4355 80.445 69.5368 80.3256L69.2733 82.3081ZM70.0911 82.8787C70.3466 83.1841 70.4142 83.4561 70.3754 83.7481L72.358 84.0117C72.4774 83.113 72.206 82.2897 71.625 81.5953L70.0911 82.8787ZM70.3754 83.7481C70.3209 84.1582 70.1591 84.3864 69.9052 84.5465L70.972 86.2383C71.7762 85.7311 72.2331 84.9511 72.358 84.0117L70.3754 83.7481ZM69.8309 84.5983C69.8397 84.5915 69.736 84.66 69.4223 84.8512C69.1408 85.0227 68.738 85.2647 68.2126 85.5779L69.2365 87.2959C69.7638 86.9816 70.1732 86.7357 70.463 86.5591C70.7207 86.4021 70.9476 86.2621 71.0464 86.1865L69.8309 84.5983ZM68.1948 85.5887C67.2713 86.1655 65.889 86.7912 64.01 87.4566L64.6776 89.3419C66.6133 88.6564 68.1516 87.9738 69.2543 87.285L68.1948 85.5887ZM64.0183 87.4537C62.2323 88.0684 60.0487 88.5653 57.4559 88.936L57.739 90.9159C60.4165 90.5331 62.7304 90.0121 64.6693 89.3448L64.0183 87.4537ZM57.4559 88.936C54.9296 89.2973 52.0788 89.2742 48.8947 88.851L48.6312 90.8335C51.9562 91.2755 54.9951 91.3082 57.739 90.9159L57.4559 88.936ZM48.8947 88.851C46.0305 88.4703 43.3507 87.6287 40.8493 86.3272L39.9262 88.1015C42.6382 89.5125 45.5418 90.4229 48.6312 90.8335L48.8947 88.851ZM40.8535 86.3294C38.3958 85.036 36.3061 83.3701 34.5757 81.3312L33.0509 82.6253C34.9524 84.8659 37.2456 86.6907 39.922 88.0993L40.8535 86.3294ZM34.5886 81.3467C32.9027 79.2769 31.6375 76.8935 30.7965 74.1861L28.8865 74.7795C29.7993 77.7176 31.182 80.3312 33.038 82.6098L34.5886 81.3467ZM30.8016 74.2032C30.0137 71.4974 29.8247 68.5239 30.2575 65.2683L28.2749 65.0048C27.8108 68.4965 28.0053 71.7539 28.8814 74.7624L30.8016 74.2032ZM30.2575 65.2683C30.7295 61.7167 31.9083 58.3971 33.7985 55.3017L32.0915 54.2593C30.0579 57.5896 28.7841 61.1741 28.2749 65.0048L30.2575 65.2683ZM33.7957 55.3062C35.7422 52.1567 38.2398 49.3071 41.2971 46.7586L40.0165 45.2224C36.8052 47.8993 34.1616 50.9098 32.0944 54.2548L33.7957 55.3062ZM41.2966 46.759C44.4027 44.1727 48.0062 41.9191 52.114 40.0024L51.2683 38.19C47.0221 40.1713 43.2693 42.5139 40.0169 45.222L41.2966 46.759ZM52.1206 39.9993C56.2313 38.0446 60.7103 36.5111 65.5608 35.4022L65.115 33.4525C60.1345 34.5912 55.5156 36.1703 51.2617 38.1931L52.1206 39.9993ZM65.568 35.4005C70.4227 34.2526 75.5628 33.5584 80.9901 33.3206L80.9025 31.3225C75.3603 31.5653 70.0947 32.275 65.1078 33.4542L65.568 35.4005ZM80.9972 33.3202C86.4229 33.0434 91.9843 33.2828 97.6821 34.0402L97.9457 32.0576C92.1334 31.285 86.4497 31.0395 80.8953 31.3228L80.9972 33.3202ZM97.6821 34.0402C103.918 34.8691 109.531 36.3336 114.527 38.4253L115.299 36.5804C110.118 34.4111 104.331 32.9063 97.9457 32.0576L97.6821 34.0402ZM114.527 38.4253C119.525 40.5178 123.669 43.1228 126.98 46.2281L128.348 44.7694C124.835 41.4745 120.479 38.7489 115.299 36.5804L114.527 38.4253ZM126.984 46.2315C130.329 49.3384 132.758 52.8987 134.287 56.9163L136.156 56.205C134.512 51.8842 131.902 48.0699 128.345 44.766L126.984 46.2315ZM134.288 56.9203C135.813 60.8752 136.271 65.2295 135.637 70.0055L137.619 70.2691C138.293 65.202 137.814 60.5052 136.154 56.201L134.288 56.9203ZM103.016 52.2587C103.337 52.3015 103.59 52.4431 103.814 52.7358L105.402 51.5203C104.869 50.8238 104.148 50.3916 103.279 50.2761L103.016 52.2587ZM103.872 52.8052C104.076 53.026 104.172 53.2886 104.118 53.6987L106.1 53.9622C106.225 53.0228 105.988 52.1505 105.344 51.4509L103.872 52.8052ZM104.118 53.6987C104.093 53.8811 104.024 54.023 103.895 54.1544L105.323 55.5548C105.755 55.1144 106.019 54.5736 106.1 53.9622L104.118 53.6987ZM103.839 54.2175C103.668 54.4242 103.446 54.6238 103.163 54.812L104.27 56.4775C104.696 56.1944 105.07 55.8672 105.38 55.4917L103.839 54.2175ZM103.208 54.7839C100.676 56.2801 98.5536 57.9928 96.8551 59.9289L98.3585 61.2479C99.897 59.4943 101.847 57.9112 104.226 56.5056L103.208 54.7839ZM96.8461 59.9392C95.2061 61.8611 93.854 63.9884 92.7903 66.3183L94.6097 67.1489C95.5974 64.9853 96.8499 63.0159 98.3675 61.2375L96.8461 59.9392ZM92.7858 66.3284C91.7764 68.6054 90.9735 71.0678 90.3742 73.713L92.3247 74.1549C92.8981 71.6243 93.6622 69.2865 94.6142 67.1389L92.7858 66.3284ZM90.371 73.7277C89.8187 76.3475 89.3513 79.0979 88.9685 81.9785L90.951 82.242C91.3278 79.4071 91.787 76.7067 92.328 74.1402L90.371 73.7277ZM88.9685 81.9785L87.9714 89.4799L89.9539 89.7434L90.951 82.242L88.9685 81.9785ZM87.9714 89.4799C87.325 94.3427 86.2796 98.9045 84.838 103.167L86.7326 103.808C88.2191 99.4126 89.292 94.7236 89.9539 89.7434L87.9714 89.4799ZM84.8386 103.166C83.4139 107.355 81.467 110.915 79.009 113.863L80.5451 115.144C83.1806 111.983 85.2392 108.199 86.7321 103.81L84.8386 103.166ZM79.0036 113.87C76.6067 116.795 73.6185 118.964 70.0226 120.384L70.7568 122.244C74.6633 120.702 77.9334 118.331 80.5506 115.137L79.0036 113.87ZM70.0146 120.387C66.4613 121.825 62.128 122.236 56.9686 121.55L56.705 123.533C62.1032 124.251 66.8051 123.843 70.7648 122.241L70.0146 120.387ZM56.9686 121.55C54.6708 121.245 52.4506 120.658 50.3061 119.788L49.5546 121.642C51.8559 122.575 54.24 123.205 56.705 123.533L56.9686 121.55ZM50.2948 119.784C48.1815 118.957 46.219 117.897 44.4053 116.605L43.2448 118.234C45.1946 119.623 47.3023 120.76 49.566 121.646L50.2948 119.784ZM44.4176 116.614C42.6082 115.283 40.9822 113.742 39.5385 111.991L37.9952 113.263C39.5429 115.141 41.2889 116.795 43.2325 118.225L44.4176 116.614ZM39.5385 111.991C38.0996 110.245 36.9156 108.34 35.9854 106.273L34.1616 107.094C35.1646 109.323 36.4429 111.38 37.9952 113.263L39.5385 111.991ZM36.019 106.358C35.9714 106.219 35.9234 106.057 35.8759 105.87L33.9373 106.362C33.9958 106.592 34.059 106.809 34.1279 107.009L36.019 106.358ZM35.8887 105.927C35.8561 105.758 35.8568 105.645 35.8658 105.577L33.8833 105.313C33.8396 105.642 33.8616 105.977 33.9245 106.304L35.8887 105.927ZM35.8658 105.577C35.9048 105.284 36.0349 105.035 36.3126 104.8L35.0229 103.272C34.3907 103.805 33.9921 104.495 33.8833 105.313L35.8658 105.577ZM36.3094 104.803C36.5838 104.573 36.8871 104.48 37.2979 104.534L37.5614 102.552C36.6228 102.427 35.7515 102.662 35.026 103.269L36.3094 104.803ZM37.2979 104.534C37.4803 104.559 37.6223 104.628 37.7536 104.757L39.154 103.329C38.7137 102.897 38.1728 102.633 37.5614 102.552L37.2979 104.534ZM37.8572 104.845C38.0787 105.01 38.2468 105.202 38.3719 105.425L40.1161 104.446C39.8493 103.971 39.4906 103.567 39.0504 103.24L37.8572 104.845ZM38.3622 105.407C40.4898 109.384 43.1041 112.547 46.2196 114.863L47.4127 113.258C44.5732 111.147 42.1394 108.227 40.1257 104.464L38.3622 105.407ZM46.2272 114.869C49.3599 117.152 53.057 118.565 57.2906 119.127L57.5542 117.145C53.6116 116.621 50.2379 115.317 47.4051 113.252L46.2272 114.869ZM57.2906 119.127C62.0857 119.765 66.2003 119.424 69.5775 118.019L68.8093 116.172C65.8586 117.4 62.126 117.753 57.5542 117.145L57.2906 119.127ZM69.5813 118.017C72.9519 116.598 75.7308 114.435 77.9012 111.536L76.3002 110.337C74.3452 112.949 71.8526 114.891 68.8054 116.174L69.5813 118.017ZM77.8986 111.54C80.0916 108.637 81.7591 105.162 82.9155 101.134L80.9932 100.582C79.8933 104.413 78.325 107.657 76.3028 110.334L77.8986 111.54ZM82.9128 101.143C84.0972 97.1634 84.992 92.8872 85.5996 88.3164L83.617 88.0529C83.0217 92.5314 82.1473 96.7041 80.9959 100.573L82.9128 101.143ZM85.5996 88.3164L86.6046 80.7554L84.622 80.4919L83.617 88.0529L85.5996 88.3164ZM86.6046 80.7554C86.9541 78.1258 87.4322 75.4307 88.0392 72.6701L86.0859 72.2406C85.4675 75.0526 84.9794 77.8031 84.622 80.4919L86.6046 80.7554ZM88.0395 72.669C88.6423 69.9124 89.5246 67.2741 90.6862 64.7525L88.8696 63.9157C87.6467 66.5704 86.7188 69.3462 86.0857 72.2417L88.0395 72.669ZM90.6823 64.7608C91.8805 62.2209 93.404 59.8809 95.2545 57.739L93.7411 56.4314C91.7728 58.7096 90.1497 61.2023 88.8735 63.9074L90.6823 64.7608ZM95.252 57.7419C97.1111 55.6067 99.4736 53.81 102.358 52.3598L101.46 50.5729C98.3717 52.1255 95.7932 54.0747 93.7436 56.4285L95.252 57.7419ZM102.235 52.4119C102.345 52.3739 102.505 52.3316 102.725 52.2894L102.348 50.3253C102.07 50.3786 101.812 50.4423 101.584 50.5208L102.235 52.4119ZM102.725 52.2894C102.818 52.2716 102.889 52.2628 102.941 52.2594C102.994 52.256 103.016 52.2588 103.016 52.2587L103.279 50.2761C102.97 50.2351 102.648 50.2676 102.348 50.3253L102.725 52.2894Z" fill="black"/>
<path d="M92.22 125.4C91.7 124.96 91.3133 124.46 91.06 123.9C91.54 123.393 92.06 123.013 92.62 122.76C93.1667 123.28 93.5267 123.787 93.7 124.28C93.58 124.467 93.3667 124.673 93.06 124.9C92.7533 125.113 92.4733 125.28 92.22 125.4ZM104.907 120.78C104.907 122.087 104.627 123.453 104.067 124.88C103.52 126.293 102.747 127.48 101.747 128.44C100.493 129.627 99.1466 130.473 97.7066 130.98C97.5732 130.833 97.5066 130.66 97.5066 130.46C98.3732 129.98 99.0799 129.527 99.6266 129.1C100.173 128.687 100.707 128.14 101.227 127.46C102.387 125.967 102.967 123.753 102.967 120.82C102.967 118.647 102.553 117.08 101.727 116.12C101.247 115.573 100.627 115.3 99.8666 115.3C99.1066 115.3 98.5066 115.62 98.0666 116.26C97.6399 116.9 97.4266 117.687 97.4266 118.62C97.4266 119.553 97.6799 120.427 98.1866 121.24C98.6932 122.053 99.3732 122.46 100.227 122.46C100.64 122.46 101.12 122.34 101.667 122.1C101.84 122.193 101.927 122.36 101.927 122.6C101.247 123.027 100.4 123.24 99.3866 123.24C98.3866 123.24 97.5132 122.853 96.7666 122.08C96.0332 121.307 95.6666 120.407 95.6666 119.38C95.6666 117.967 96.1066 116.86 96.9866 116.06C97.8799 115.26 99.0466 114.747 100.487 114.52C101.833 114.52 102.907 115.107 103.707 116.28C104.507 117.44 104.907 118.94 104.907 120.78ZM112.97 125.06L109.75 125C108.417 125 107.457 125.033 106.87 125.1C106.79 124.993 106.75 124.853 106.75 124.68L109.15 122.36C109.19 122.32 109.357 122.167 109.65 121.9C109.943 121.633 110.183 121.413 110.37 121.24C110.557 121.053 110.797 120.8 111.09 120.48C111.383 120.147 111.623 119.84 111.81 119.56C112.25 118.893 112.47 118.273 112.47 117.7C112.47 117.113 112.257 116.627 111.83 116.24C111.403 115.853 110.917 115.66 110.37 115.66C109.823 115.66 109.177 115.84 108.43 116.2C108.27 117.147 108.177 117.82 108.15 118.22C108.043 118.273 107.937 118.3 107.83 118.3C107.737 118.3 107.657 118.287 107.59 118.26C107.537 117.42 107.457 116.847 107.35 116.54C107.257 116.22 107.21 116.053 107.21 116.04C107.21 115.867 107.31 115.74 107.51 115.66C108.323 115.313 109.417 114.933 110.79 114.52C111.75 114.52 112.563 114.74 113.23 115.18C113.897 115.62 114.23 116.313 114.23 117.26C114.23 118.207 113.643 119.233 112.47 120.34L108.91 123.72H111.03C112.203 123.72 113.003 123.68 113.43 123.6C113.87 123.507 114.197 123.34 114.41 123.1C114.477 123.02 114.603 122.773 114.79 122.36C114.817 122.347 114.89 122.34 115.01 122.34C115.13 122.34 115.23 122.38 115.31 122.46C115.27 122.7 115.223 122.96 115.17 123.24C115.117 123.507 115.077 123.707 115.05 123.84C114.997 124.267 114.97 124.593 114.97 124.82C114.703 124.98 114.037 125.06 112.97 125.06ZM124.515 116.12C124.222 116.32 123.522 116.42 122.415 116.42C121.322 116.42 120.002 116.393 118.455 116.34L118.115 118.82C119.755 119.473 121.102 120.253 122.155 121.16C123.208 122.067 123.735 123.08 123.735 124.2C123.735 125.813 123.088 127.173 121.795 128.28C121.142 128.84 120.462 129.327 119.755 129.74C119.062 130.167 118.168 130.647 117.075 131.18C116.942 131.127 116.862 130.96 116.835 130.68C118.528 129.68 119.795 128.747 120.635 127.88C121.475 127.027 121.895 126.073 121.895 125.02C121.895 123.98 121.435 123.067 120.515 122.28C119.595 121.48 118.442 120.813 117.055 120.28L117.935 114.76C119.495 114.827 120.828 114.86 121.935 114.86C123.042 114.86 123.708 114.747 123.935 114.52C124.002 114.453 124.075 114.347 124.155 114.2C124.235 114.04 124.295 113.927 124.335 113.86C124.522 113.86 124.682 113.893 124.815 113.96C124.628 114.893 124.528 115.613 124.515 116.12Z" fill="#FEFEFE"/>
</svg>
